<svg width="63" height="63" viewBox="0 0 63 63" fill="none" xmlns="http://www.w3.org/2000/svg">
<path d="M0 32.7L30.3 63H31.7L0 31.3V32.7Z" fill="black"/>
<path d="M27 30.2H24.4L19.8 25.6C20.2 25.3 20.7 25.2 21.2 25.2H22L21.5 24.7L21 24.3C20.1 24.3 19.3 24.7 18.7 25.3L17.3 26.7C16.3 27.7 16.3 29.3 17.3 30.2L23.3 36.2L18 41.5C17.5 42 17.3 42.6 17.3 43.3C17.3 44 17.6 44.6 18 45.1C18.5 45.6 19.1 45.8 19.8 45.8C20.5 45.8 21.1 45.6 21.6 45.1L28.7 38C29.7 37 29.7 35.4 28.7 34.5L25.5 31.3H28L27.5 30.8L27 30.2ZM27.9 35.2C28.5 35.8 28.5 36.7 27.9 37.3L20.8 44.4C20.2 45 19.3 45 18.7 44.4C18.4 44.1 18.3 43.7 18.3 43.3C18.3 42.9 18.5 42.5 18.7 42.2L24.4 36.6C24.5 36.5 24.5 36.4 24.5 36.2C24.5 36.1 24.4 35.9 24.4 35.8L18.8 30.2L18 29.5C17.6 29.1 17.5 28.4 17.7 27.8C17.8 27.6 17.9 27.5 18 27.3L18.2 27.1L19 26.3L22.9 30.2L23.4 30.7L23.9 31.2L27.9 35.2Z" fill="black"/>
<path d="M29.4 31.2L28.9 30.7L28.4 30.2L23.4 25.2L22.9 24.7L22.4 24.2L16.6 18.4C16.4 18.2 16.1 18.2 15.9 18.4C15.7 18.6 15.7 18.9 15.9 19.1L21 24.2L21.5 24.7L22 25.2L27 30.2L27.5 30.7L28 31.2L30.7 33.9V32.5L29.4 31.2Z" fill="#FCB019"/>
<path d="M40.2 24.2C38.3 24.2 36.7 25.8 36.7 27.7C36.7 29.6 38.3 31.2 40.2 31.2C42.1 31.2 43.7 29.6 43.7 27.7C43.7 25.8 42.1 24.2 40.2 24.2ZM40.2 30.2C38.8 30.2 37.7 29.1 37.7 27.7C37.7 26.3 38.8 25.2 40.2 25.2C41.6 25.2 42.7 26.3 42.7 27.7C42.7 29.1 41.5 30.2 40.2 30.2Z" fill="black"/>
<path d="M35.6 34.7V27.7C35.6 25.8 34 24.2 32.1 24.2H22.3L22.8 24.7L23.3 25.2H32.1C33.5 25.2 34.6 26.3 34.6 27.7V27.8V29.3V30.1V34.8C34.6 34.9 34.7 35.1 34.7 35.2L39.8 40.3C40.1 40.6 40.2 41 40.2 41.4C40.2 41.8 40 42.3 39.7 42.5C39.1 43 38.2 42.9 37.6 42.3L32 36.7C31.7 36.4 31.6 36 31.6 35.6V34.8V33.4V31.1V30.6V30.1V28.6V28.5C31.5 28.3 31.4 28.1 31.1 28.1C30.8 28.1 30.6 28.3 30.6 28.6V30.1H28.3L28.8 30.6L29.3 31.1H30.6V32.4V33.8V35.6C30.6 36.3 30.9 36.9 31.3 37.4L36.9 43C37.4 43.5 38.1 43.8 38.8 43.8C39.4 43.8 39.9 43.6 40.4 43.2C41 42.7 41.3 42 41.3 41.3C41.3 40.6 41 40 40.6 39.5L35.6 34.7Z" fill="black"/>
<path d="M27.2 57.1C27.7 57.6 28.3 57.8 29 57.8C29.7 57.8 30.3 57.5 30.8 57.1C31 56.9 31 56.6 30.8 56.4C30.6 56.2 30.3 56.2 30.1 56.4C29.5 57 28.5 57 28 56.4L6.7 35.2C6.5 35 6.1 35 6 35.2C5.9 35.4 5.8 35.7 6 35.9L27.2 57.1Z" fill="#2A76BC"/>
</svg>
