<svg width="63" height="63" viewBox="0 0 63 63" fill="none" xmlns="http://www.w3.org/2000/svg">
<path d="M55.7 53.5C55.4 53.5 55.2 53.7 55.2 54C55.2 54.8 54.5 55.5 53.7 55.5H7.70001C7.40001 55.5 7.20001 55.7 7.20001 56C7.20001 56.3 7.40001 56.5 7.70001 56.5H53.7C55.1 56.5 56.2 55.4 56.2 54C56.2 53.7 56 53.5 55.7 53.5Z" fill="#2A76BC"/>
<path d="M28.7 16C30.6 16 32.2 14.4 32.2 12.5C32.2 10.6 30.7 9 28.7 9C26.7 9 25.2 10.6 25.2 12.5C25.2 14.4 26.8 16 28.7 16ZM28.7 10C30.1 10 31.2 11.1 31.2 12.5C31.2 13.9 30.1 15 28.7 15C27.3 15 26.2 13.9 26.2 12.5C26.2 11.1 27.3 10 28.7 10Z" fill="black"/>
<path d="M25.2 17.5C25.4 17.6 25.6 17.8 25.7 18H31.1L26.1 20C26 20.6 25.7 21.1 25.3 21.4L32.7 18.4L33.2 18.2L33.7 18H41H41.7H44.3H45H52.7H53.7C54 18 54.2 17.8 54.2 17.5C54.2 17.2 54 17 53.7 17H53.2V16.5C53.2 16.2 53 16 52.7 16C52.4 16 52.2 16.2 52.2 16.5V17H33.7H31.7H23.8H23.7C24.3 17.1 24.8 17.2 25.2 17.5Z" fill="#00A64F"/>
<path d="M15.7 22H23.2V31.5V33L15.7 51C15.2 52.3 15.8 53.7 17.1 54.3C17.7 54.6 18.4 54.6 19 54.3C19.6 54 20.1 53.6 20.4 52.9L27.4 36H28.1L35.1 52.9C35.4 53.5 35.8 54 36.5 54.3C36.8 54.4 37.1 54.5 37.5 54.5C37.9 54.5 38.1 54.4 38.5 54.3C39.1 54 39.6 53.6 39.9 52.9C40.2 52.3 40.2 51.6 39.9 51L32.4 33V31.5V23.5L35.8 26.9C36.8 27.9 38.4 27.9 39.3 26.9L45 21.2C45.5 20.7 45.8 20 45.7 19.2C45.7 18.7 45.5 18.3 45.2 17.9H44.5H41.9H41L37.4 21.5L33.8 17.9L33.3 18.1L32.8 18.3L37 22.5C37.2 22.7 37.5 22.7 37.7 22.5L41.9 18.3C42.5 17.7 43.3 17.6 43.9 18.1C44.3 18.4 44.5 18.8 44.5 19.2C44.5 19.6 44.4 20.1 44.1 20.4L38.4 26.1C37.8 26.7 36.9 26.7 36.3 26.1L32.1 22C32 21.9 31.7 21.8 31.6 21.9C31.4 22 31.3 22.2 31.3 22.4V31H24.3V22C24.7 21.9 25.1 21.7 25.4 21.4C25.8 21 26.1 20.6 26.2 20C26.2 19.8 26.2 19.7 26.2 19.5C26.2 18.9 26 18.4 25.7 18C25.6 17.8 25.4 17.6 25.2 17.5C24.8 17.2 24.3 17 23.8 17H15.8C14.4 17 13.3 18.1 13.3 19.5C13.3 20.9 14.3 22 15.7 22ZM15.7 18H21.7H22.4H23.2H23.7C23.7 18 23.7 18 23.8 18C24 18 24.1 18 24.2 18.1C24.8 18.3 25.2 18.9 25.2 19.5C25.2 19.9 25 20.3 24.8 20.5C24.5 20.8 24.1 21 23.7 21H23.2H22.4H21.7H15.7C14.9 21 14.2 20.3 14.2 19.5C14.2 18.7 14.9 18 15.7 18ZM38.8 51.4C39 51.8 39 52.2 38.8 52.5C38.6 52.8 38.4 53.2 38 53.3C37.6 53.4 37.2 53.5 36.9 53.3C36.5 53.1 36.2 52.9 36.1 52.5L29 35.3C28.9 35.1 28.7 35 28.5 35H27.2C27 35 26.8 35.1 26.7 35.3L19.6 52.5C19.4 52.9 19.2 53.2 18.8 53.3C18.4 53.5 18 53.5 17.7 53.3C16.9 53 16.6 52.1 16.9 51.3L24.4 33.2C24.4 33.1 24.4 33.1 24.4 33V32H31.4V33.1C31.4 33.2 31.4 33.2 31.4 33.3L38.8 51.4Z" fill="black"/>
</svg>
