<svg width="63" height="63" viewBox="0 0 63 63" fill="none" xmlns="http://www.w3.org/2000/svg">
<path d="M14.6 37.3L0 31.3V32.4L14.2 38.3C14.3 38.3 14.3 38.3 14.4 38.3C14.6 38.3 14.8 38.2 14.9 38C15 37.7 14.9 37.4 14.6 37.3Z" fill="#2A76BC"/>
<path d="M29.4 25C29.8 25.2 30.3 25.3 30.7 25.3C31.2 25.3 31.6 25.2 32 25C32.9 24.6 33.5 24 33.9 23.1C34.6 21.3 33.8 19.3 32 18.5C30.2 17.8 28.2 18.6 27.4 20.4C26.8 22.3 27.6 24.3 29.4 25ZM28.5 20.9C28.9 19.9 29.8 19.4 30.8 19.4C31.1 19.4 31.4 19.5 31.8 19.6C33.1 20.1 33.7 21.6 33.2 22.9C32.9 23.5 32.5 24 31.8 24.3C31.2 24.6 30.5 24.6 29.9 24.3C28.5 23.6 27.9 22.1 28.5 20.9Z" fill="black"/>
<path d="M21.1 21.6C21.5 21.8 22 21.9 22.4 21.9C22.9 21.9 23.3 21.8 23.7 21.6C24.6 21.2 25.2 20.6 25.6 19.7C26 18.8 26 17.9 25.6 17C25.2 16.1 24.6 15.5 23.7 15.1C22.8 14.7 21.9 14.7 21 15.1C20.1 15.5 19.5 16.1 19.1 17C18.5 18.8 19.3 20.9 21.1 21.6ZM20.1 17.4C20.4 16.8 20.8 16.3 21.5 16C21.8 15.9 22.1 15.8 22.5 15.8C22.8 15.8 23.1 15.9 23.5 16C24.1 16.3 24.6 16.7 24.9 17.4C25.2 18.1 25.2 18.7 24.9 19.3C24.6 19.9 24.2 20.4 23.5 20.7C22.9 21 22.2 21 21.6 20.7C20.2 20.1 19.6 18.7 20.1 17.4Z" fill="black"/>
<path d="M12.8 18.2C13.2 18.4 13.7 18.5 14.1 18.5C14.6 18.5 15 18.4 15.4 18.2C16.3 17.8 16.9 17.2 17.3 16.3C17.7 15.4 17.7 14.5 17.3 13.6C16.9 12.7 16.3 12.1 15.4 11.7C13.6 11 11.6 11.8 10.8 13.6C10.2 15.4 11 17.4 12.8 18.2ZM11.8 14C12.2 13 13.1 12.5 14.1 12.5C14.4 12.5 14.7 12.6 15.1 12.7C16.4 13.2 17 14.7 16.5 16C16.2 16.6 15.8 17.1 15.1 17.4C14.5 17.7 13.8 17.7 13.2 17.4C11.9 16.7 11.3 15.2 11.8 14Z" fill="black"/>
<path d="M4.5 14.7C4.9 14.9 5.4 15 5.8 15C6.3 15 6.7 14.9 7.1 14.7C8 14.3 8.6 13.7 9 12.8C9.4 11.9 9.4 11 9 10.1C8.7 9.29999 8 8.59999 7.2 8.19999C6.3 7.79999 5.4 7.79999 4.5 8.19999C3.6 8.59999 3 9.19999 2.6 10.1C2.2 11 2.2 11.9 2.6 12.8C2.9 13.7 3.6 14.4 4.5 14.7ZM3.5 10.5C3.8 9.89999 4.2 9.39999 4.9 9.09999C5.2 8.99999 5.5 8.99999 5.8 8.99999C6.1 8.99999 6.4 9.09999 6.8 9.19999C7.4 9.49999 7.9 9.89999 8.2 10.6C8.5 11.3 8.5 11.9 8.2 12.5C7.9 13.1 7.5 13.6 6.8 13.9C6.2 14.2 5.5 14.2 4.9 13.9C4.3 13.6 3.8 13.2 3.5 12.5C3.2 11.8 3.3 11.1 3.5 10.5Z" fill="black"/>
<path d="M49.7 51.8L27.5 42.6C27.2 42.5 27 42.6 26.8 42.9C26.6 43.2 26.8 43.4 27.1 43.6L49.3 52.8C49.4 52.8 49.4 52.8 49.5 52.8C49.7 52.8 49.9 52.7 50 52.5C50.1 52.2 50 52 49.7 51.8Z" fill="#2A76BC"/>
<path d="M55.6 48.3C55.6 48.2 55.5 48 55.4 47.9C55.4 47.9 55.4 47.8 55.3 47.8C55.2 47.7 55.1 47.6 55 47.5C51.5 39.2 44.7 32.4 36.3 29L0 13.9V15L35.9 29.9C43.7 33.1 50.1 39.3 53.6 47L34.5 39C34.1 38.8 33.7 38.8 33.4 39C33 39.2 32.7 39.4 32.6 39.8C32.5 40.2 32.4 40.6 32.6 40.9C32.8 41.2 33 41.6 33.4 41.7L53.1 50C53 50.2 52.8 50.3 52.6 50.4C52.2 50.6 51.8 50.6 51.5 50.4L0 29.1V30.2L51 51.3C51.3 51.4 51.6 51.5 52 51.5C52.3 51.5 52.6 51.4 53 51.3C53.5 51.1 53.9 50.8 54.2 50.3C54.2 50.3 54.2 50.3 54.3 50.3C54.4 50.3 54.4 50.3 54.5 50.3C54.6 50.3 54.7 50.3 54.7 50.3C54.7 50.3 54.8 50.3 54.8 50.2C54.9 50.2 55 50.1 55.1 50.1C55.2 50.1 55.2 50 55.2 50C55.3 49.9 55.3 49.9 55.4 49.8C55.5 49.7 55.5 49.6 55.6 49.5C55.6 49.5 55.6 49.5 55.6 49.4C55.7 49.2 55.7 49.1 55.7 48.9C55.7 48.9 55.7 48.9 55.7 48.8C55.7 48.7 55.7 48.6 55.6 48.3C55.6 48.4 55.6 48.4 55.6 48.3ZM54.7 49C54.7 49.1 54.6 49.2 54.5 49.2C54.4 49.2 54.4 49.3 54.3 49.3H54.2H54.1L33.8 40.9C33.7 40.8 33.6 40.8 33.5 40.6C33.4 40.5 33.4 40.3 33.5 40.2C33.6 40.1 33.6 40 33.8 39.9C33.9 39.9 33.9 39.9 34 39.9C34.1 39.9 34.1 39.9 34.2 39.9L54.5 48.3C54.6 48.3 54.6 48.4 54.7 48.4C54.7 48.4 54.7 48.4 54.7 48.5C54.7 48.6 54.8 48.7 54.8 48.7C54.7 48.9 54.7 48.9 54.7 49Z" fill="black"/>
<path d="M15.4 34.3C15.6 34.3 15.8 34.3 16 34.2C16.4 34 16.7 33.8 16.8 33.4C16.9 33 17 32.6 16.8 32.3C16.6 31.9 16.4 31.6 16 31.5L0 24.8V25.9L15.6 32.4C15.7 32.5 15.8 32.5 15.9 32.7C16 32.8 16 33 15.9 33.1C15.8 33.2 15.8 33.3 15.6 33.4C15.5 33.5 15.3 33.5 15.2 33.4L0 26.9V28L14.8 34.1C15 34.2 15.2 34.3 15.4 34.3Z" fill="black"/>
</svg>
