<svg width="63" height="63" viewBox="0 0 63 63" fill="none" xmlns="http://www.w3.org/2000/svg">
<path d="M42.5 33.9C42.3 34.1 42.3 34.4 42.5 34.6C42.6 34.7 42.7 34.7 42.9 34.7C43.1 34.7 43.2 34.7 43.3 34.6L55.2 22.7H53.8L42.5 33.9Z" fill="#FCB019"/>
<path d="M56.9 17.8H40.9C40.9 17.8 40.9 17.8 40.8 17.8H31.5C30.8 17.8 30.2 18.1 29.7 18.5L24.1 24.1C23.7 24.5 23.5 24.9 23.4 25.4C23.3 25.7 23.3 26.1 23.4 26.4C23.5 26.7 23.6 27.1 23.8 27.4C24.2 28 24.9 28.4 25.6 28.4C25.7 28.4 25.7 28.4 25.8 28.4C26.5 28.4 27.1 28.1 27.6 27.7L32.5 22.8H34.3L30.5 26.6L29.2 28C28.6 28.6 28.4 29.4 28.5 30.1L23.5 35H14.6C13.3 35 12.2 35.9 12 37.1C11.9 37.8 12.1 38.6 12.6 39.1C13.1 39.7 13.8 40 14.5 40H24.5C25.2 40 25.8 39.7 26.3 39.3L31.6 34L36.2 38.6V47.5C36.2 48.8 37.1 49.9 38.3 50.1C38.4 50.1 38.6 50.1 38.7 50.1C39.3 50.1 39.9 49.9 40.3 49.5C40.9 49 41.2 48.3 41.2 47.6V37.6C41.2 36.9 40.9 36.3 40.5 35.8L35.9 31.2L43.3 23.8C43.6 23.5 43.8 23.2 44 22.8H53.7H55.1H56.9C58.3 22.8 59.4 21.7 59.4 20.3C59.4 18.9 58.3 17.8 56.9 17.8ZM56.1 21.8H54.7H44.3C44.5 20.7 44.1 19.6 43.3 18.8H56.9C57.7 18.8 58.4 19.5 58.4 20.3C58.4 21.1 57.7 21.8 56.9 21.8H56.1ZM42.8 22.8C42.7 22.9 42.7 23 42.6 23.1L35.2 30.5L31.7 27L35.9 22.8H37C37.3 22.8 37.5 22.6 37.5 22.3C37.5 22.2 37.5 22.1 37.4 22.1C37.3 21.9 37.2 21.8 37 21.8H36.9H36.2H35.5H32.5C32.4 21.8 32.2 21.9 32.1 21.9L26.9 27C26.6 27.3 26.2 27.5 25.7 27.4C25.3 27.4 24.9 27.1 24.6 26.8C24.5 26.7 24.5 26.6 24.4 26.4C24.3 26.1 24.3 25.7 24.4 25.4C24.5 25.2 24.6 25 24.8 24.8L30.4 19.2C30.7 18.9 31.1 18.8 31.5 18.8H38.4H39.2H40.9C40.9 18.8 40.9 18.8 41 18.8C41 18.8 41 18.8 41.1 18.8C41.6 18.8 42.1 19.1 42.6 19.4L42.7 19.5C43.3 20.1 43.5 21 43.4 21.8C43.4 22 43.3 22.1 43.2 22.3C43 22.4 42.9 22.6 42.8 22.8ZM40.2 47.5C40.2 47.9 40 48.4 39.7 48.6C39.4 48.9 38.9 49 38.5 48.9C37.8 48.8 37.2 48.1 37.2 47.3V38.2C37.2 38.1 37.1 37.9 37.1 37.8L32.4 33.1L32 32.9L31.6 32.5L29.8 30.7C29.7 30.6 29.6 30.4 29.5 30.3C29.4 30.1 29.4 29.9 29.4 29.7C29.4 29.3 29.5 28.9 29.8 28.6L30.8 27.5L31.2 27.9L31.7 28.4L33.6 30.3L34.1 30.8L34.8 31.5L39.8 36.5C40.1 36.8 40.2 37.2 40.2 37.6V47.5ZM14.6 39C14.2 39 13.7 38.8 13.4 38.5C13.1 38.2 13 37.7 13.1 37.3C13.2 36.6 13.9 36.1 14.7 36.1H23.8C23.9 36.1 24.1 36 24.2 36L29 31.2C29.1 31.3 29.2 31.5 29.3 31.6L31.1 33.4L25.8 38.7C25.4 38.9 25 39 24.6 39H14.6Z" fill="black"/>
<path d="M43.8 16.8C45.7 16.8 47.3 15.2 47.3 13.3C47.3 11.4 45.7 9.8 43.8 9.8C41.9 9.8 40.3 11.4 40.3 13.3C40.3 15.2 41.9 16.8 43.8 16.8ZM43.8 10.8C45.2 10.8 46.3 11.9 46.3 13.3C46.3 14.7 45.2 15.8 43.8 15.8C42.4 15.8 41.3 14.7 41.3 13.3C41.3 11.9 42.5 10.8 43.8 10.8Z" fill="black"/>
<path d="M51.7 49C51.4 49 51.2 49.2 51.2 49.5C51.2 50.3 50.5 51 49.7 51H27.7C27.4 51 27.2 51.2 27.2 51.5C27.2 51.8 27.4 52 27.7 52H49.7C51.1 52 52.2 50.9 52.2 49.5C52.2 49.3 52 49 51.7 49Z" fill="#2A76BC"/>
<path d="M22 47.8C21.4 48.4 20.5 48.4 19.9 47.8L4.30001 32.2C4.10001 32 3.80001 32 3.60001 32.2C3.40001 32.4 3.40001 32.7 3.60001 32.9L19.2 48.5C19.7 49 20.3 49.2 21 49.2C21.6 49.2 22.3 49 22.8 48.5C23 48.3 23 48 22.8 47.8C22.6 47.6 22.2 47.6 22 47.8Z" fill="#2A76BC"/>
<path d="M23.5 25.4H5.90002C5.60002 25.4 5.40002 25.6 5.40002 25.9C5.40002 26.2 5.60002 26.4 5.90002 26.4H23.5C23.4 26.1 23.4 25.8 23.5 25.4Z" fill="#FCB019"/>
</svg>
