<svg width="63" height="63" viewBox="0 0 63 63" fill="none" xmlns="http://www.w3.org/2000/svg">
<path d="M54.7 25H38.7H27.7H25.7L13.3 12.6C12.3 11.6 10.7 11.6 9.79999 12.6C8.79999 13.6 8.79999 15.2 9.79999 16.1L23.2 29.5V48.5C23.2 49.9 24.3 51 25.7 51C27.1 51 28.2 49.9 28.2 48.5V32H38.7C39.1 32 39.5 31.9 39.9 31.8L43.3 35.2C43.8 35.7 44.4 35.9 45.1 35.9C45.7 35.9 46.4 35.7 46.9 35.2L52.1 30H54.8C56.2 30 57.3 28.9 57.3 27.5C57.3 26.1 56.1 25 54.7 25ZM54.7 29H52.9C53.1 28.6 53.2 28.2 53.2 27.8C53.2 27.1 52.9 26.5 52.5 26H54.8C55.6 26 56.3 26.7 56.3 27.5C56.3 28.3 55.6 29 54.7 29ZM50.7 30L46.2 34.5C45.6 35.1 44.7 35.1 44.1 34.5L40.9 31.3L40.5 31L40.1 30.6L39.5 30L39.1 29.6C39.1 29.6 39 29.6 39 29.5C38.9 29.4 38.7 29.4 38.5 29.5C38.5 29.5 38.4 29.5 38.4 29.6C38.3 29.7 38.2 29.9 38.3 30C38.3 30.1 38.4 30.2 38.4 30.3L39.1 31C39 31 38.9 31 38.8 31H28.2V26H36.7H37.4H38.7C39.4 26 40 26.3 40.5 26.7C40.5 26.7 40.5 26.8 40.6 26.8C40.9 27.2 41.3 27.6 41.7 28C41.9 28.2 42.1 28.4 42.2 28.6C42.4 28.8 42.5 28.9 42.7 29.1C42.9 29.3 43 29.4 43.2 29.6C43.4 29.8 43.6 29.9 43.7 30.1C44.3 30.7 44.7 31.1 44.7 31.1C44.9 31.3 45.2 31.3 45.4 31.1L46.4 30.1L46.9 29.6L47.4 29.1L49.7 26.8C50 26.5 50.4 26.4 50.8 26.4C51.2 26.4 51.6 26.6 51.9 26.8C52.2 27.1 52.3 27.5 52.3 27.9C52.3 28.3 52.1 28.7 51.9 29H51.7L51.2 29.5L50.7 30ZM24.2 48.5V30.5V29.8V29.1V27.5C24.2 26.8 24.7 26.2 25.4 26C25.5 26 25.6 26 25.7 26H26H26.7H27.2V26.5V27.2V28.5V29.8V30.5V48.5C27.2 49.3 26.5 50 25.7 50C24.9 50 24.2 49.4 24.2 48.5ZM11.6 12.9C12 12.9 12.4 13 12.7 13.3L24.7 25.3C23.9 25.7 23.3 26.6 23.3 27.5V28.1L10.5 15.5C9.89999 14.9 9.89999 14 10.5 13.4C10.8 13 11.2 12.9 11.6 12.9ZM49 26C49 26.1 49 26.1 49 26L46 29H44.1C43.2 28.2 42.1 27.1 41.2 26H49Z" fill="black"/>
<path d="M30.7 52H22.7C22.4 52 22.2 52.2 22.2 52.5C22.2 52.8 22.4 53 22.7 53H30.7C31 53 31.2 52.8 31.2 52.5C31.2 52.2 31 52 30.7 52Z" fill="#2A76BC"/>
<path d="M11.2 9.10001C11 8.90001 10.7 8.90001 10.5 9.10001L4.79999 14.8C4.59999 15 4.59999 15.3 4.79999 15.5C4.89999 15.6 4.99999 15.6 5.19999 15.6C5.39999 15.6 5.49999 15.6 5.59999 15.5L11.3 9.80001C11.4 9.60001 11.4 9.30001 11.2 9.10001Z" fill="#2A76BC"/>
<path d="M38.7 24C40.6 24 42.2 22.4 42.2 20.5C42.2 18.6 40.7 17 38.7 17C36.7 17 35.2 18.6 35.2 20.5C35.2 22.4 36.8 24 38.7 24ZM38.7 18C40.1 18 41.2 19.1 41.2 20.5C41.2 21.9 40.1 23 38.7 23C37.3 23 36.2 21.9 36.2 20.5C36.2 19.1 37.3 18 38.7 18Z" fill="black"/>
</svg>
