<svg width="63" height="63" viewBox="0 0 63 63" fill="none" xmlns="http://www.w3.org/2000/svg">
<path d="M52.2 45.1V25.5C52.2 25.2 52 25 51.7 25C51.4 25 51.2 25.2 51.2 25.5V45H51.7C51.9 45 52.1 45.1 52.2 45.1Z" fill="#FCB019"/>
<path d="M12.2 45V25.5C12.2 25.2 12 25 11.7 25C11.4 25 11.2 25.2 11.2 25.5V45.1C11.4 45.1 11.5 45 11.7 45H12.2Z" fill="#FCB019"/>
<path d="M32 6.20001C32.6 5.60001 33.6 5.60001 34.1 6.20001C34.3 6.40001 34.6 6.40001 34.8 6.20001C35 6.00001 35 5.70001 34.8 5.50001C33.9 4.60001 32.2 4.60001 31.3 5.50001L31 5.70001L30.8 5.50001C29.9 4.60001 28.2 4.60001 27.3 5.50001L11.7 21.1C11.5 21.3 11.5 21.6 11.7 21.8C11.8 21.9 11.9 21.9 12.1 21.9C12.3 21.9 12.4 21.9 12.5 21.8L28 6.20001C28.6 5.60001 29.6 5.60001 30.1 6.20001L30.3 6.40001L22.8 14C23.2 14 23.6 14.1 23.9 14.3L32 6.20001Z" fill="#2A76BC"/>
<path d="M15.7 21.1C15.5 21.3 15.5 21.6 15.7 21.8C15.8 21.9 15.9 21.9 16.1 21.9C16.3 21.9 16.4 21.9 16.5 21.8L20.6 17.7C20.4 17.4 20.3 17 20.3 16.6L15.7 21.1Z" fill="#2A76BC"/>
<path d="M31.7 51C29.8 51 28.2 52.6 28.2 54.5C28.2 56.4 29.8 58 31.7 58C33.6 58 35.2 56.4 35.2 54.5C35.2 52.6 33.7 51 31.7 51ZM31.7 57C30.3 57 29.2 55.9 29.2 54.5C29.2 53.1 30.3 52 31.7 52C33.1 52 34.2 53.1 34.2 54.5C34.2 55.9 33.1 57 31.7 57Z" fill="black"/>
<path d="M52.2 45.1C52 45.1 51.9 45 51.7 45H51.2H36.2V35.5V23.5C36.2 22.8 35.9 22.2 35.5 21.7L28.4 14.6C27.9 14.1 27.2 13.8 26.4 13.9C25.7 14 25.1 14.3 24.6 14.9L24.3 14.6C24.1 14.4 23.9 14.3 23.8 14.2C23.5 14 23.1 13.9 22.7 13.9C22.6 13.9 22.5 13.9 22.4 13.9C21.7 14 21 14.3 20.6 14.9C20.3 15.4 20.1 15.9 20.2 16.5C20.2 16.9 20.3 17.3 20.5 17.6C20.6 17.8 20.8 18 21 18.2L27.3 24.5V35.5V45H12.3H11.8C11.6 45 11.5 45 11.3 45.1C10.2 45.3 9.29999 46.3 9.29999 47.5C9.29999 48.9 10.4 50 11.8 50H51.8C53.2 50 54.3 48.9 54.3 47.5C54.2 46.3 53.4 45.3 52.2 45.1ZM21.7 17.6C21.5 17.4 21.4 17.2 21.3 16.9C21.2 16.5 21.2 16 21.5 15.6C21.8 15.2 22.2 15 22.6 15C22.8 15 23 15 23.2 15.1C23.4 15.2 23.6 15.3 23.8 15.5L24.3 16L25.4 17.1L30.9 22.6C31.1 22.8 31.2 23 31.3 23.2C31.3 23.3 31.4 23.5 31.4 23.7V24.7V30.7V31.7C31.4 31.8 31.5 32 31.5 32.1C31.5 32.2 31.7 32.2 31.9 32.2C32.2 32.2 32.4 32 32.4 31.7V30.7V24.5V23.7C32.4 23 32.1 22.4 31.7 21.9L25.6 15.8C25.6 15.8 25.6 15.8 25.6 15.7C25.9 15.3 26.3 15.1 26.7 15.1C27.1 15.1 27.6 15.2 27.9 15.5L35 22.6C35.3 22.9 35.4 23.3 35.4 23.7V35H28.4V24.4C28.4 24.3 28.3 24.1 28.3 24L21.7 17.6ZM51.7 49H11.7C10.9 49 10.2 48.3 10.2 47.5C10.2 46.8 10.6 46.3 11.2 46.1C11.4 46 11.5 46 11.7 46H12.2H27.7C28 46 28.2 45.8 28.2 45.5V36H35.2V45.5C35.2 45.8 35.4 46 35.7 46H51.2H51.7C51.9 46 52 46 52.2 46.1C52.8 46.3 53.2 46.9 53.2 47.5C53.2 48.4 52.5 49 51.7 49Z" fill="black"/>
</svg>
