<svg width="63" height="63" viewBox="0 0 63 63" fill="none" xmlns="http://www.w3.org/2000/svg">
<path d="M53.2 45H46.4L41.5 40.1C41.5 40.1 41.5 40.1 41.5 40.2C41.3 40.5 41.1 40.7 40.8 40.8L45.9 45.9L46.7 46.7C47.5 47.6 48.7 48 49.9 48H53.2C54 48 54.7 47.3 54.7 46.5C54.7 45.7 54 45 53.2 45ZM53.2 47H49.9C49 47 48.1 46.6 47.5 46H53.3C53.6 46 53.8 46.2 53.8 46.5C53.8 46.8 53.5 47 53.2 47Z" fill="#EE2B2F"/>
<path d="M29.9 28.6H28.5L31.2 31.3V29.9L29.9 28.6Z" fill="#EE2B2F"/>
<path d="M32.4 47H24.4C24.1 47 23.9 47.2 23.9 47.5C23.9 47.8 24.1 48 24.4 48H32.4C32.7 48 32.9 47.8 32.9 47.5C32.9 47.2 32.7 47 32.4 47Z" fill="#2A76BC"/>
<path d="M18.3 47H10.3C10 47 9.8 47.2 9.8 47.5C9.8 47.8 10 48 10.3 48H18.3C18.6 48 18.8 47.8 18.8 47.5C18.8 47.2 18.5 47 18.3 47Z" fill="#2A76BC"/>
<path d="M38.4 22.9C39.3 22.9 40.2 22.5 40.9 21.9C41.6 21.2 41.9 20.4 41.9 19.4C41.9 18.5 41.5 17.6 40.9 16.9C39.6 15.6 37.3 15.6 36 16.9C34.6 18.3 34.6 20.5 36 21.8C36.6 22.5 37.4 22.9 38.4 22.9ZM36.6 17.6C37.1 17.1 37.7 16.9 38.4 16.9C39.1 16.9 39.7 17.2 40.2 17.6C40.7 18.1 40.9 18.7 40.9 19.4C40.9 20.1 40.6 20.7 40.2 21.2C39.3 22.1 37.6 22.1 36.7 21.2C35.6 20.2 35.6 18.6 36.6 17.6Z" fill="black"/>
<path d="M41.4 40.2C41.4 40.1 41.4 40.1 41.4 40.2C42.1 39.2 41.9 37.8 41 36.9L36.2 32V25C36.2 24.1 35.8 23.2 35.2 22.5L29.5 16.8C28.8 16.1 27.7 15.9 26.8 16.3C25.8 16.7 25.3 17.6 25.3 18.6V21.5H21.7C20.8 21.5 19.9 21.9 19.2 22.5L17.8 24C16.8 25 16.8 26.5 17.8 27.5V35.4L11.5 41.7C10.6 42.6 10.5 44 11.2 45C11.6 45.6 12.3 46 13 46C13.1 46 13.1 46 13.2 46C13.9 46 14.5 45.7 15 45.3L22.1 38.2C22.6 37.7 22.8 37.1 22.8 36.4V32.4L24.9 34.5V43.4C24.9 44.7 25.8 45.8 27 46C27.1 46 27.3 46 27.4 46C28 46 28.6 45.8 29 45.4C29.6 44.9 29.9 44.2 29.9 43.5V33.5C29.9 32.8 29.6 32.2 29.2 31.7L26 28.5H28.6H30H31.3V29.8V31.2V33C31.3 33.7 31.6 34.3 32 34.8L37.7 40.5C38.2 41 38.8 41.2 39.5 41.2C39.6 41.2 39.6 41.2 39.7 41.2C40.1 41.2 40.5 41 40.9 40.8C41 40.6 41.2 40.4 41.4 40.2ZM40.7 39.4C40.7 39.5 40.6 39.6 40.6 39.6C40.4 39.8 40.2 40 40 40.1C39.8 40.2 39.7 40.2 39.5 40.2C39.1 40.2 38.6 40.1 38.3 39.8L32.6 34.1C32.3 33.8 32.2 33.4 32.2 33V32.2V30.8V28.5V28V27.5V26.5V26V25.9C32.1 25.7 32 25.5 31.7 25.5C31.5 25.5 31.4 25.6 31.3 25.7C31.2 25.8 31.2 25.9 31.2 26V27.5H28.9H27.5H24.9L20.3 23C20.7 22.7 21.2 22.6 21.7 22.6H25.3H26.3H32.7C33.4 22.6 34 22.9 34.5 23.3C35 23.8 35.2 24.4 35.2 25.1V25.2V26.1V26.7V27.5V32.2C35.2 32.3 35.3 32.5 35.3 32.6L40.3 37.6C40.8 38.1 41 38.8 40.7 39.4ZM28.9 43.6C28.9 44 28.7 44.5 28.4 44.7C28 45 27.6 45.1 27.1 45C26.4 44.9 25.8 44.2 25.8 43.4V34.3C25.8 34.2 25.7 34 25.7 33.9L22.8 31L22.3 30.5L21.8 30L19.3 27.5L18.9 27.1L18.6 26.8C18.5 26.7 18.4 26.6 18.4 26.4C18.2 26 18.1 25.5 18.3 25.1C18.4 25 18.5 24.8 18.6 24.7C18.6 24.7 18.6 24.7 18.6 24.6L18.8 24.4L19.6 23.6L20 24L20.5 24.5L22.3 26.3L22.8 26.8L23.5 27.5L24 28L24.5 28.5L28.4 32.4C28.7 32.7 28.8 33.1 28.8 33.5V43.6H28.9ZM21.8 36.5C21.8 36.9 21.6 37.3 21.4 37.6L14.3 44.7C14 45 13.5 45.2 13.1 45.1C12.7 45.1 12.3 44.8 12 44.5C11.6 43.9 11.7 43.1 12.2 42.5L18.6 36.1C18.7 36 18.7 35.9 18.7 35.7V28.6L21.7 31.6V36.5H21.8ZM26.3 18.7C26.3 18 26.8 17.5 27.2 17.3C27.6 17.1 28.3 17.1 28.8 17.6L32.7 21.5H26.3V18.7Z" fill="black"/>
</svg>
