<svg width="63" height="63" viewBox="0 0 63 63" fill="none" xmlns="http://www.w3.org/2000/svg">
<path d="M52.7 42.6C52.4 42.5 52.2 42.6 52 42.9C51.3 44.7 49.2 45.5 47.4 44.8L17.1 32.1C16.8 32 16.6 32.1 16.4 32.4C16.3 32.7 16.4 32.9 16.7 33.1L47.1 45.7C47.7 45.9 48.2 46 48.8 46C50.6 46 52.2 45 53 43.2C53.1 43 52.9 42.7 52.7 42.6Z" fill="#EE2B2F"/>
<path d="M19.2 20.6C19.2 18.7 17.6 17.1 15.7 17.1C13.8 17.1 12.2 18.7 12.2 20.6C12.2 22.5 13.8 24.1 15.7 24.1C17.6 24.1 19.2 22.5 19.2 20.6ZM13.2 20.6C13.2 19.2 14.3 18.1 15.7 18.1C17.1 18.1 18.2 19.2 18.2 20.6C18.2 22 17.1 23.1 15.7 23.1C14.3 23.1 13.2 22 13.2 20.6Z" fill="black"/>
<path d="M27.4 35.3L27.6 35.4H27.7L29.5 36.1L31.3 36.9C31.6 37 31.9 37.1 32.3 37.1C33 37.1 33.6 36.8 34.1 36.3L47.7 43.6C48.1 43.8 48.5 43.9 48.9 43.9C49.2 43.9 49.5 43.9 49.7 43.8C50.4 43.6 50.9 43.1 51.2 42.4C51.7 41.2 51.1 39.8 50 39.2L34.2 30.7C33 30 31.7 29.4 30.4 28.9L20.2 24.7C18.4 24 16.4 24.8 15.6 26.6C15.2 27.5 15.2 28.4 15.6 29.3C16 30.2 16.6 30.8 17.5 31.2L27.4 35.3ZM49.4 40.1C50.1 40.5 50.5 41.3 50.2 42C50 42.4 49.7 42.7 49.3 42.8C48.9 42.9 48.5 42.9 48.1 42.7L34.6 35.4C35.1 34.1 34.5 32.7 33.2 32.2L30 31L30.4 30.1C31.5 30.6 32.6 31.1 33.7 31.7L49.4 40.1ZM16.5 27C17 25.7 18.5 25.1 19.8 25.6L29.5 29.6L29.1 30.5L20.3 27C20 26.9 19.8 27 19.6 27.3C19.5 27.5 19.6 27.8 19.8 27.9L19.9 28L28.7 31.6L29.6 32L32.8 33.3C33.5 33.6 33.9 34.4 33.7 35.1V35.2C33.6 35.5 33.4 35.7 33.1 35.9C32.7 36.2 32.2 36.2 31.7 36L29.9 35.2L28.5 34.6L27.6 34.2L26.3 33.7L18 30.2H17.9C16.6 29.8 15.9 28.3 16.5 27Z" fill="black"/>
</svg>
