<svg width="63" height="63" viewBox="0 0 63 63" fill="none" xmlns="http://www.w3.org/2000/svg">
<path d="M47.4 44.2C47.2 44.4 47.2 44.7 47.4 44.9C47.5 45 47.6 45 47.8 45C48 45 48.1 45 48.2 44.9L57.1 36H55.7L47.4 44.2Z" fill="#FCB019"/>
<path d="M58.2 32.1H46.2H39.3C38.8 32.1 38.3 32.3 37.9 32.7L33.7 36.9C33.4 37.2 33.2 37.5 33.1 37.9C33 38.2 33 38.6 33.1 38.9C33.2 39.1 33.3 39.4 33.4 39.6C33.7 40.1 34.3 40.4 34.9 40.4C35 40.4 35 40.4 35.1 40.4C35.6 40.4 36.1 40.2 36.5 39.8L40.2 36.1H41.2L38.6 38.7L37.5 39.8C37.1 40.2 36.9 40.8 36.9 41.4L33.2 45H26.6C25.6 45 24.7 45.7 24.5 46.7C24.4 47.3 24.6 47.9 24.9 48.3C25.3 48.7 25.8 49 26.4 49H34C34.5 49 35 48.8 35.4 48.4L39.3 44.5L42.6 47.8V54.4C42.6 55.4 43.3 56.3 44.3 56.5C44.4 56.5 44.5 56.5 44.6 56.5C45.1 56.5 45.5 56.3 45.9 56C46.3 55.6 46.6 55.1 46.6 54.5V47C46.6 46.5 46.4 46 46 45.6L42.6 42.2L48.1 36.7C48.3 36.5 48.5 36.3 48.6 36H55.5H56.9H58.2C58.7 36 59.2 35.8 59.6 35.4C60 35 60.2 34.5 60.2 34C60.2 33 59.3 32.1 58.2 32.1ZM58.9 34.8C58.7 35 58.5 35.1 58.2 35.1H57.9H56.5H48.9C48.9 35 48.9 34.9 48.9 34.8C48.9 34.2 48.7 33.5 48.3 33.1H58.2C58.8 33.1 59.2 33.5 59.2 34.1C59.2 34.4 59.1 34.6 58.9 34.8ZM47.4 36.1L41.9 41.6L39.8 39.5L39.4 39.1L42.4 36.1H43.2C43.5 36.1 43.7 35.9 43.7 35.6C43.7 35.5 43.7 35.4 43.6 35.4C43.5 35.3 43.5 35.2 43.4 35.2C43.3 35.2 43.3 35.2 43.2 35.2H42.7H42H39.8C39.7 35.2 39.5 35.3 39.4 35.3L35.7 39C35.5 39.2 35.2 39.3 34.9 39.3C34.6 39.3 34.3 39.1 34.2 38.9V38.8C34 38.5 34 38.1 34.2 37.8C34.3 37.7 34.3 37.6 34.4 37.5L38.6 33.3C38.8 33.1 39 33 39.3 33H44H44.7H46.1H46.2C46.2 33 46.2 33 46.3 33C46.3 33 46.3 33 46.4 33H46.5H46.6C46.7 33 46.7 33 46.8 33.1H46.9C47 33.1 47 33.2 47.1 33.2H47.2L47.3 33.3L47.4 33.4C47.7 33.7 47.9 34.2 47.9 34.6C47.9 34.7 47.9 34.8 47.9 34.9C47.9 35.1 47.8 35.2 47.7 35.4C47.7 35.8 47.6 35.9 47.4 36.1ZM45.6 47V54.5C45.6 54.8 45.5 55.1 45.3 55.3C45.1 55.5 44.8 55.6 44.5 55.5C44 55.4 43.7 55 43.7 54.4V47.6C43.7 47.5 43.6 47.3 43.6 47.2L40 43.9L39.6 43.5L39.2 43.1L38 41.9C37.9 41.8 37.9 41.8 37.9 41.7C37.8 41.5 37.7 41.3 37.8 41.1C37.8 40.9 37.9 40.6 38.1 40.5L38.8 39.8L39.2 40.2L40.7 41.7L41.1 42.1L45.2 46.2C45.5 46.5 45.6 46.8 45.6 47ZM26.5 48C26.2 48 25.9 47.9 25.7 47.6C25.5 47.4 25.4 47.1 25.5 46.8C25.6 46.3 26 46 26.6 46H33.4C33.5 46 33.7 45.9 33.8 45.9L37.3 42.4C37.4 42.5 37.4 42.5 37.5 42.6L38.7 43.8L34.8 47.7C34.5 47.9 34.3 48 34 48H26.5Z" fill="black"/>
<path d="M48.4 31.6C49.9 31.6 51.2 30.4 51.2 28.8C51.2 27.2 50 26 48.4 26C46.8 26 45.6 27.2 45.6 28.8C45.6 30.4 46.9 31.6 48.4 31.6ZM48.4 27.1C49.4 27.1 50.2 27.9 50.2 28.9C50.2 29.9 49.4 30.7 48.4 30.7C47.4 30.7 46.6 29.9 46.6 28.9C46.6 27.9 47.5 27.1 48.4 27.1Z" fill="black"/>
<path d="M54.3 55.5C54 55.5 53.8 55.7 53.8 56C53.8 56.6 53.4 57 52.8 57H36.3C36 57 35.8 57.2 35.8 57.5C35.8 57.8 36 58 36.3 58H52.8C53.9 58 54.8 57.1 54.8 56C54.8 55.8 54.6 55.5 54.3 55.5Z" fill="#2A76BC"/>
<path d="M32 54.6C31.6 55 31 55 30.6 54.6L18.9 43C18.7 42.8 18.4 42.8 18.2 43C18 43.2 18 43.5 18.2 43.7L29.9 55.4C30.3 55.8 30.8 56 31.3 56C31.8 56 32.3 55.8 32.7 55.4C32.9 55.2 32.9 54.9 32.7 54.7C32.5 54.5 32.2 54.4 32 54.6Z" fill="#2A76BC"/>
<path d="M33.1 37.8H20C19.7 37.8 19.5 38 19.5 38.3C19.5 38.6 19.7 38.8 20 38.8H33C33 38.5 33 38.2 33.1 37.8Z" fill="#FCB019"/>
<path d="M34.3 12.3C34.6 12.4 35 12.5 35.4 12.5C35.8 12.5 36.1 12.4 36.4 12.3C37.1 12 37.6 11.5 37.9 10.8C38.2 10.1 38.2 9.40002 37.9 8.70002C37.6 8.00002 37.1 7.50002 36.4 7.20002C35.7 7.00002 35 7.00002 34.3 7.20002C33.6 7.50002 33.1 8.00002 32.8 8.70002C32.5 9.40002 32.5 10.1 32.8 10.8C33.1 11.5 33.6 12 34.3 12.3ZM33.7 9.10002C33.9 8.70002 34.2 8.30002 34.6 8.20002C34.9 8.10002 35.1 8.00002 35.4 8.00002C35.6 8.00002 35.9 8.00002 36.1 8.10002C36.5 8.30002 36.9 8.60002 37 9.00002C37.2 9.40002 37.2 9.90002 37 10.3C36.8 10.7 36.5 11.1 36.1 11.2C35.7 11.4 35.2 11.4 34.8 11.2C34.4 11 34 10.7 33.9 10.3C33.6 10 33.6 9.60002 33.7 9.10002Z" fill="black"/>
<path d="M36.9 17.8C36.8 17.5 36.5 17.4 36.2 17.5C35.9 17.6 35.8 17.9 35.9 18.2C36.1 18.7 35.9 19.3 35.4 19.5L3.50001 32.7C3.20001 32.8 3.10001 33.1 3.20001 33.4C3.30001 33.6 3.50001 33.7 3.70001 33.7C3.80001 33.7 3.80001 33.7 3.90001 33.7L35.8 20.5C36.8 20 37.3 18.8 36.9 17.8Z" fill="#2A76BC"/>
<path d="M10.5 29.1C11 29.1 11.5 28.9 11.9 28.5L22.2 18.2L23.2 17.8L30.8 14.6C31.5 14.3 32 13.8 32.3 13.1C32.6 12.4 32.6 11.7 32.3 11C32.1 10.6 31.8 10.2 31.5 9.90001C31.3 9.70001 31.1 9.60001 30.8 9.50001L19.8 5.00001C19.3 4.80001 18.8 4.80001 18.3 5.00001C17.8 5.20001 17.4 5.60001 17.2 6.10001C17 6.60001 17 7.10001 17.2 7.60001C17.4 8.10001 17.8 8.50001 18.3 8.70001L24.6 11.3L21.2 12.7L19.8 13.3C18.8 13.7 18.3 14.9 18.7 15.9L18.8 16.1L9.1 25.8C8.7 26.2 8.5 26.7 8.5 27.2C8.5 27.7 8.7 28.2 9.1 28.6C9.4 28.9 9.9 29.1 10.5 29.1ZM25.9 11.8L26.6 12.1C26.7 12.1 26.7 12.1 26.8 12.1C27 12.1 27.2 12 27.3 11.8C27.3 11.7 27.3 11.6 27.3 11.6C27.3 11.5 27.3 11.4 27.2 11.3C27.2 11.2 27.1 11.2 27 11.2L25.9 10.8L18.6 7.80001C18.4 7.70001 18.2 7.50001 18.1 7.30001C18 7.10001 18 6.80001 18.1 6.50001C18.2 6.30001 18.4 6.10001 18.6 6.00001C18.8 5.90001 19.1 5.90001 19.4 6.00001L28.5 9.80001L30.5 10.6C30.7 10.7 30.9 10.8 31.1 11C31.2 11.1 31.3 11.3 31.4 11.4L31.5 11.5C31.7 11.9 31.7 12.4 31.5 12.8C31.3 13.2 31 13.6 30.6 13.7L23.4 16.7L22.7 15.1L22 13.4L25.9 11.8ZM9.8 26.4L19.7 16.5C19.8 16.4 19.9 16.1 19.8 16L19.6 15.5C19.4 15 19.6 14.4 20.1 14.2L21 13.8L21.7 15.4L22.4 17L21.8 17.3C21.7 17.3 21.7 17.4 21.6 17.4L11.2 27.8C10.8 28.2 10.2 28.2 9.8 27.8C9.6 27.6 9.5 27.4 9.5 27.1C9.5 26.8 9.6 26.6 9.8 26.4Z" fill="black"/>
</svg>
