<svg width="63" height="63" viewBox="0 0 63 63" fill="none" xmlns="http://www.w3.org/2000/svg">
<path d="M40.2 14.2C39.3 13.3 37.6 13.3 36.7 14.2C35.7 15.2 35.7 16.8 36.7 17.7L43.5 24.5H38C37.1 24.5 36.2 24.9 35.5 25.5L34.1 26.9C33.6 27.4 33.4 28 33.4 28.7C33.4 28.8 33.4 28.9 33.4 29L20.7 41.8C20.2 42.3 20 42.9 20 43.6C20 44.3 20.3 44.9 20.7 45.4C21.2 45.9 21.8 46.1 22.5 46.1C23.2 46.1 23.8 45.8 24.3 45.4L36.7 33L40.2 36.5L34.9 41.8C34.4 42.3 34.2 42.9 34.2 43.6C34.2 44.3 34.5 44.9 34.9 45.4C35.4 45.9 36 46.1 36.7 46.1C37.4 46.1 38 45.9 38.5 45.4L45.6 38.3C46.6 37.3 46.6 35.7 45.6 34.8L42.4 31.6H47.7V44C47.7 45.4 48.8 46.5 50.2 46.5C51.6 46.5 52.7 45.4 52.7 44V28C52.7 27.1 52.3 26.2 51.7 25.5L40.2 14.2ZM37.4 17C36.8 16.4 36.8 15.5 37.4 14.9C37.7 14.6 38.1 14.5 38.5 14.5C38.9 14.5 39.3 14.7 39.6 14.9L49.2 24.5H45L37.4 17ZM23.5 44.6C22.9 45.2 21.9 45.2 21.4 44.6C21.1 44.3 21 43.9 21 43.5C21 43.1 21.2 42.7 21.4 42.4L33.8 30C33.9 30.1 34 30.3 34.1 30.4L35.9 32.2L23.5 44.6ZM44.7 35.4C45.3 36 45.3 36.9 44.7 37.5L37.6 44.6C37 45.2 36.1 45.2 35.5 44.6C35.2 44.3 35.1 43.9 35.1 43.5C35.1 43.1 35.3 42.7 35.5 42.4L41.2 36.8C41.3 36.7 41.3 36.6 41.3 36.4C41.3 36.3 41.2 36.1 41.2 36L37.3 32.1L37 31.9L36.6 31.5L34.8 29.7C34.7 29.6 34.6 29.4 34.5 29.3C34.4 29.1 34.4 28.9 34.4 28.7V28.6C34.4 28.4 34.4 28.2 34.5 28C34.6 27.8 34.7 27.7 34.8 27.6L35.1 27.3L35.9 26.5L36.2 26.8L36.7 27.3L37.6 28.2L38.5 29.1L39 29.6L39.7 30.3L40.2 30.8L40.7 31.3L44.7 35.4ZM51.5 28.1V29V29.6V30.4V44C51.5 44.8 50.8 45.5 50 45.5C49.2 45.5 48.5 44.8 48.5 44V31.5V31V30.5V29.5V29V28.9C48.4 28.7 48.3 28.5 48 28.5C47.8 28.5 47.7 28.6 47.6 28.7C47.5 28.8 47.5 28.9 47.5 29V30.5H41.2L38.3 27.6L36.6 25.9C37 25.6 37.5 25.5 38 25.5H44.4H45.8H49C49.7 25.5 50.3 25.8 50.8 26.2C51.3 26.7 51.5 27.3 51.5 28V28.1Z" fill="black"/>
<path d="M57.4 24C57.3 24 57.3 24 57.2 24L56.7 23.8C56.3 24.5 55.5 24.9 54.6 24.9C53.2 24.9 52.1 23.8 52.1 22.4C52.1 22.2 52.1 22.1 52.1 21.9L51.2 21.5C51.1 21.8 51.1 22.1 51.1 22.4C51.1 24.3 52.7 25.9 54.6 25.9C56.1 25.9 57.3 25 57.8 23.7C57.8 23.9 57.6 24 57.4 24Z" fill="black"/>
<path d="M41.6 47H33.6C33.3 47 33.1 47.2 33.1 47.5C33.1 47.8 33.3 48 33.6 48H41.6C41.9 48 42.1 47.8 42.1 47.5C42.1 47.2 41.9 47 41.6 47Z" fill="#2A76BC"/>
<path d="M27.5 47H19.5C19.2 47 19 47.2 19 47.5C19 47.8 19.2 48 19.5 48H27.5C27.8 48 28 47.8 28 47.5C28 47.2 27.7 47 27.5 47Z" fill="#2A76BC"/>
<path d="M58.1 21.6C58.1 21.5 58 21.4 58 21.2C58 21.1 57.9 21 57.9 20.9V20.8C57.5 20 56.9 19.3 56.1 19C56 19 55.9 19 55.8 18.9C55.6 18.8 55.5 18.8 55.3 18.8C55.2 18.8 55.1 18.8 55 18.8C54.8 18.8 54.7 18.8 54.5 18.8C54.4 18.8 54.4 18.8 54.3 18.8L49.1 19.5C48.9 19.5 48.7 19.7 48.7 19.9C48.7 20.1 48.8 20.3 49 20.4L51.4 21.4L52.3 21.8L56.8 23.7L57.3 23.9C57.4 23.9 57.4 23.9 57.5 23.9C57.7 23.9 57.9 23.8 58 23.6C58.1 23.4 58.2 23.2 58.2 23V22.9C58.2 22.7 58.3 22.5 58.3 22.3C58.2 22.1 58.2 21.9 58.1 21.6ZM57.1 22.8L52.6 20.9L51.7 20.5L51 20.3L51.9 20.2L54.3 19.9C54.4 19.9 54.4 19.9 54.5 19.9C54.6 19.9 54.7 19.9 54.8 19.9C54.9 19.9 55 19.9 55.1 19.9C55.2 19.9 55.3 19.9 55.4 20C55.5 20 55.6 20 55.6 20.1C56.2 20.4 56.7 20.8 56.9 21.4C57 21.6 57 21.8 57.1 22C57.1 22.1 57.1 22.1 57.1 22.2C57.2 22.4 57.2 22.6 57.1 22.8Z" fill="#FCB019"/>
<path d="M23.1 24C23 24 23 24 22.9 24L22.4 23.8C22.3 23.9 22.2 24.1 22.1 24.2C21.2 25.1 19.5 25.1 18.6 24.2C18.1 23.7 17.9 23.1 17.9 22.4C17.9 22.2 17.9 22.1 17.9 21.9L17 21.5C16.9 21.8 16.9 22.1 16.9 22.4C16.9 23.3 17.3 24.2 17.9 24.9C18.5 25.6 19.4 25.9 20.4 25.9C21.3 25.9 22.2 25.5 22.9 24.9C23.2 24.6 23.5 24.2 23.7 23.8C23.4 23.9 23.2 24 23.1 24Z" fill="black"/>
<path d="M7.2 47H0V48H7.2C7.5 48 7.7 47.8 7.7 47.5C7.7 47.2 7.5 47 7.2 47Z" fill="#2A76BC"/>
<path d="M14.5 20.5L16.9 21.5L17.8 21.9L22.3 23.8L22.8 24C22.9 24 22.9 24 23 24C23.2 24 23.4 23.9 23.5 23.7C23.5 23.6 23.5 23.6 23.6 23.5C23.6 23.4 23.7 23.2 23.7 23.1C23.7 22.9 23.8 22.7 23.8 22.5V22.4C23.8 22.2 23.8 21.9 23.7 21.7C23.7 21.5 23.6 21.3 23.5 21C23.1 20.1 22.5 19.5 21.6 19.1C21.1 18.9 20.5 18.8 19.8 18.9L14.6 19.6C14.4 19.6 14.2 19.8 14.2 20C14.2 20.2 14.3 20.4 14.5 20.5ZM17.6 20.2L20 19.9C20.1 19.9 20.1 19.9 20.2 19.9C20.3 19.9 20.4 19.9 20.5 19.9C20.6 19.9 20.7 19.9 20.8 19.9C20.9 19.9 21 19.9 21.1 20C21.2 20 21.3 20 21.3 20.1C21.9 20.4 22.4 20.8 22.7 21.5C22.8 21.7 22.8 21.9 22.9 22.1C22.9 22.2 22.9 22.2 22.9 22.3C22.9 22.5 22.9 22.7 22.9 22.9L18.4 21L17.5 20.6L16.9 20.3L17.6 20.2Z" fill="#EE2B2F"/>
<path d="M21 35.4C21.6 35.4 22.3 35.2 22.8 34.7L28.5 29C29.5 28 29.5 26.4 28.5 25.5C27.5 24.5 25.9 24.5 25 25.5L21 29.4L17.1 25.5L5.8 14.2C4.8 13.2 3.2 13.2 2.3 14.2C1.3 15.2 1.3 16.8 2.3 17.7L9 24.5H3.6C2.7 24.5 1.8 24.9 1.1 25.5L0 26.7V28.7C0 28.5 0 28.3 0.1 28.1C0.2 28 0.3 27.8 0.4 27.7L0.7 27.4L1.5 26.6L1.9 27L3.3 28.4L4.7 29.8L5.4 30.5L5.9 31L6.4 31.5L10.3 35.4C10.6 35.7 10.7 36.1 10.7 36.5C10.7 36.9 10.5 37.3 10.3 37.6L3.2 44.7C2.6 45.3 1.6 45.3 1.1 44.7C0.8 44.4 0.7 44 0.7 43.6C0.7 43.2 0.9 42.8 1.1 42.5L6.8 36.9C6.9 36.7 7 36.6 7 36.5C7 36.4 6.9 36.2 6.9 36.1L3 32.2L2.3 31.5L0.5 29.7C0.4 29.6 0.3 29.4 0.2 29.3C0.1 29.1 0 28.9 0 28.7V30.7L1.5 32.2L0 33.7V35.1L2.2 32.9L5.7 36.4L0.4 41.7C0.3 42 0.1 42.2 0 42.4V44.7C0.1 44.9 0.3 45.1 0.4 45.3C0.9 45.8 1.5 46 2.2 46C2.9 46 3.5 45.7 4 45.3L11.1 38.2C11.6 37.7 11.8 37.1 11.8 36.4C11.8 35.7 11.5 35.1 11.1 34.6L7.9 31.4H14.7C15.1 31.4 15.5 31.3 15.9 31.2L19.3 34.6C19.7 35.2 20.3 35.4 21 35.4ZM3 17C2.4 16.4 2.4 15.5 3 14.9C3.3 14.6 3.7 14.5 4.1 14.5C4.5 14.5 4.9 14.6 5.2 14.9L14.8 24.5H10.6L3 17ZM16.4 30.4L16 30.1L15.7 29.8L15.2 29.3L15 29C15 29 14.9 29 14.9 28.9C14.7 28.8 14.5 28.8 14.4 28.9C14.4 28.9 14.4 28.9 14.3 28.9C14.2 29 14.1 29.2 14.2 29.3C14.2 29.4 14.3 29.5 14.3 29.6L15 30.3C14.9 30.3 14.8 30.3 14.7 30.3H6.8L4 27.6L2.3 25.9C2.7 25.6 3.2 25.5 3.7 25.5H10H10.7H11.4H14.6C15.3 25.5 15.9 25.8 16.4 26.2L16.5 26.3L17.3 27.1L17.5 27.3L17.7 27.5L18 27.8L20.5 30.3C20.7 30.5 21 30.5 21.2 30.3L25.4 26.1C26 25.5 26.9 25.5 27.5 26.1C28.1 26.7 28.1 27.6 27.5 28.2L22 34C21.4 34.6 20.5 34.6 19.9 34L16.7 30.8L16.4 30.4Z" fill="black"/>
</svg>
