<svg width="63" height="63" viewBox="0 0 63 63" fill="none" xmlns="http://www.w3.org/2000/svg">
<path d="M63 54.8L0 28.7V29.8L63 55.9" fill="black"/>
<path d="M11.5 25.2L20.7 29L21.1 29.1L31.8 33.5L36.4 35.4L35.9 35.6C34.9 36 34.4 36.9 34.4 37.9C34.4 38.9 35 39.8 35.9 40.2L43.2 43.2C43.5 43.3 43.9 43.4 44.2 43.4C45.1 43.4 45.9 43 46.3 42.2C46.7 41.6 46.8 40.8 46.5 40.1C46.3 39.4 45.8 38.8 45.1 38.6L43.4 38L45.2 37.2C45.8 36.9 46.3 36.5 46.6 35.9C46.9 35 46.9 34.1 46.6 33.3C46.2 32.4 45.6 31.8 44.7 31.4L34.5 27.2L32.7 26.4C31.6 25.9 30.3 26.3 29.7 27.3L28.9 27L23.7 24.8L20.3 16.6C19.8 15.3 18.4 14.7 17.2 15.1C16.5 15.3 15.9 15.9 15.7 16.5C15.4 17.1 15.4 17.8 15.7 18.4L17.2 22.1L13.5 20.6C12.2 20.1 10.8 20.7 10.2 22C9.6 23.2 10.3 24.7 11.5 25.2ZM34.6 28.2L44.3 32.2C44.9 32.5 45.4 32.9 45.7 33.6C46 34.2 46 34.9 45.7 35.5C45.5 35.8 45.3 36.1 44.9 36.3L42.7 37.2L41.9 37.5C41.8 37.5 41.8 37.6 41.7 37.6C41.6 37.7 41.6 37.8 41.6 37.9C41.6 38.1 41.7 38.3 41.9 38.4L44.8 39.6C45.2 39.8 45.5 40.1 45.7 40.5C45.8 40.9 45.8 41.4 45.5 41.8C45.1 42.4 44.3 42.7 43.6 42.4L36.3 39.4C35.6 39.1 35.4 38.5 35.4 38C35.4 37.5 35.6 36.9 36.3 36.6L37.7 36L39 35.5L40.9 34.7C41 34.6 41.1 34.5 41.2 34.4C41.2 34.3 41.2 34.2 41.2 34.1C41.1 33.8 40.8 33.7 40.5 33.8L37.7 35L32.7 32.9L33.7 30.6L34.6 28.2ZM16.5 18C16.3 17.6 16.3 17.2 16.5 16.9C16.7 16.5 17 16.2 17.4 16C17.5 16 17.7 15.9 17.8 15.9C18.4 15.9 19 16.3 19.3 16.9L22.3 24.2L18.4 22.6L16.5 18ZM11.1 22.3C11.3 21.9 11.5 21.6 11.9 21.5C12.1 21.4 12.3 21.4 12.5 21.4C12.7 21.4 12.9 21.4 13.1 21.5L17.7 23.4L18.4 23.7L19.1 24L28 27.7L29.8 28.4C30.1 28.5 30.3 28.4 30.5 28.1C30.6 27.9 30.7 27.8 30.8 27.7C31.2 27.2 31.9 27.1 32.5 27.3L33.9 27.9L33.3 29.3L33 29.9L32.9 30.2L32 32.3L31.9 32.5L31.7 32.4L22.8 28.7L21.2 28.1L20 27.6L19.3 27.3L11.9 24.2C11.1 23.9 10.8 23.1 11.1 22.3Z" fill="black"/>
<path d="M49.4 40.9C49.8 41.1 50.3 41.2 50.7 41.2C51.2 41.2 51.6 41.1 52 40.9C52.9 40.5 53.5 39.9 53.9 39C54.3 38.1 54.3 37.2 53.9 36.3C53.5 35.4 52.9 34.8 52 34.4C50.2 33.7 48.2 34.5 47.4 36.3C47 37.2 47 38.1 47.4 39C47.9 39.8 48.5 40.5 49.4 40.9ZM48.4 36.7C48.8 35.7 49.7 35.2 50.7 35.2C51 35.2 51.3 35.3 51.7 35.4C52.3 35.7 52.8 36.1 53.1 36.8C53.4 37.5 53.4 38.1 53.1 38.7C52.8 39.3 52.4 39.8 51.7 40.1C51.1 40.4 50.4 40.4 49.8 40.1C49.2 39.8 48.7 39.4 48.4 38.7C48.1 38 48.2 37.3 48.4 36.7Z" fill="black"/>
<path d="M45.4 45.3L17.7 33.9C17.4 33.8 17.2 33.9 17 34.2C16.9 34.5 17 34.7 17.3 34.9L45 46.3C45.3 46.4 45.6 46.5 46 46.5C47 46.5 47.9 45.9 48.3 45C48.4 44.7 48.3 44.5 48 44.3C47.7 44.2 47.5 44.3 47.3 44.6C47 45.3 46.2 45.6 45.4 45.3Z" fill="#EE2B2F"/>
</svg>
