<svg width="63" height="63" viewBox="0 0 63 63" fill="none" xmlns="http://www.w3.org/2000/svg">
<path d="M24 19.7C24.1 19.8 24.2 19.8 24.4 19.8C24.6 19.8 24.7 19.8 24.8 19.7L30.9 13.6C31 13.5 31 13.4 31 13.2C31 13 30.9 12.9 30.9 12.8L28.4 10.3C28.2 10.1 27.9 10.1 27.7 10.3L21.6 16.4C21.4 16.6 21.4 16.9 21.6 17.1L24 19.7ZM27.9 11.4L29.7 13.2L24.3 18.6L22.5 16.8L27.9 11.4Z" fill="#2A76BC"/>
<path d="M45 25.7V46.5C45 46.8 45.2 47 45.5 47C45.8 47 46 46.8 46 46.5V25.6C45.8 25.6 45.6 25.7 45.4 25.7H45Z" fill="#FCB019"/>
<path d="M45.5 20.7H38.5L33.6 15.8C32.2 14.4 30 14.4 28.7 15.8L20.9 23.6C20.2 24.3 19.9 25.1 19.9 26.1V28.1V48.1C19.9 49.5 21 50.6 22.4 50.6C23.8 50.6 24.9 49.5 24.9 48.1V30.5H30.9V37C30.9 37.7 31.2 38.3 31.6 38.8C32.1 39.3 32.7 39.5 33.4 39.5C34.8 39.5 35.9 38.4 35.9 37V27.9C35.9 26.5 34.8 25.4 33.4 25.4H28.8L32.5 21.7L35.7 24.9C36.2 25.4 36.8 25.6 37.5 25.6H45H45.4C45.6 25.6 45.8 25.6 46 25.5C47.1 25.3 47.9 24.4 48 23.3C48.1 22.6 47.8 21.8 47.3 21.3C46.8 21 46.2 20.7 45.5 20.7ZM46 24.6C45.8 24.7 45.6 24.7 45.4 24.7H45H37.5C37.1 24.7 36.7 24.5 36.4 24.3L33.2 21.1L32.8 20.7L32.4 20.3L31.3 19.2C31.3 19.2 31.2 19.2 31.2 19.1C31 19 30.8 19 30.6 19.2C30.4 19.4 30.4 19.7 30.6 19.9L31.7 21L27.3 25.4H22.4H22.2H20.8C20.9 24.9 21.1 24.5 21.5 24.1L29.3 16.3C29.8 15.8 30.4 15.6 31.1 15.6C31.7 15.6 32.4 15.8 32.9 16.3L33 16.4L34.1 17.5L34.7 18.1L38 21.4C38.1 21.5 38.2 21.5 38.4 21.5H45.6C46 21.5 46.4 21.7 46.7 21.9C47 22.2 47.2 22.6 47.1 23.1C47 23.9 46.6 24.4 46 24.6ZM34.9 37.1C34.9 37.9 34.2 38.6 33.4 38.6C33 38.6 32.6 38.4 32.3 38.2C32 37.9 31.9 37.5 31.9 37.1V30.1C31.9 30 31.8 29.8 31.8 29.7C31.7 29.6 31.6 29.6 31.4 29.6H24.9H23.9H23.4H23.3H22.3C21.9 29.6 21.5 29.4 21.2 29.2C21.1 29.1 20.9 28.9 20.9 28.7C20.8 28.5 20.8 28.3 20.8 28.2V27.9V26.7H20.9H22.3H22.5H24.4H26.4H27.1H27.8H33.4C34.2 26.7 34.9 27.4 34.9 28.2V37.1ZM23.9 48C23.9 48.8 23.2 49.5 22.4 49.5C21.6 49.5 20.9 48.8 20.9 48V30C21.3 30.3 21.9 30.5 22.4 30.5H23.9V48Z" fill="black"/>
<path d="M36.9 16.1C37.8 16.1 38.7 15.7 39.4 15.1C40.1 14.5 40.4 13.6 40.4 12.6C40.4 11.7 40 10.8 39.4 10.1C38 8.69999 35.8 8.69999 34.5 10.1C33.1 11.5 33.1 13.7 34.5 15C35 15.7 35.9 16.1 36.9 16.1ZM35.1 10.8C35.6 10.3 36.2 10.1 36.9 10.1C37.5 10.1 38.2 10.3 38.7 10.8C39.2 11.3 39.4 11.9 39.4 12.6C39.4 13.3 39.1 13.9 38.7 14.4C37.8 15.3 36.1 15.3 35.2 14.4C34.1 13.4 34.1 11.8 35.1 10.8Z" fill="black"/>
<path d="M39.8 32.7C39.6 32.9 39.6 33.2 39.8 33.4C40.1 33.7 40.2 34.1 40.2 34.5C40.2 34.9 40 35.3 39.8 35.6L18.6 56.7C18.4 56.9 18.4 57.2 18.6 57.4C18.7 57.5 18.8 57.5 19 57.5C19.2 57.5 19.3 57.5 19.4 57.4L40.6 36.2C41.1 35.7 41.3 35.1 41.3 34.4C41.3 33.7 41 33.1 40.6 32.6C40.3 32.5 40 32.5 39.8 32.7Z" fill="#2A76BC"/>
</svg>
