<svg width="63" height="63" viewBox="0 0 63 63" fill="none" xmlns="http://www.w3.org/2000/svg">
<path d="M50.6 15.4C49.7 15 48.8 15 47.9 15.4C47 15.8 46.4 16.4 46 17.3C45.6 18.2 45.6 19.1 46 20C46.4 20.9 47 21.5 47.9 21.9C48.3 22.1 48.8 22.2 49.2 22.2C49.7 22.2 50.1 22.1 50.5 21.9C51.4 21.5 52 20.9 52.4 20C52.8 19.1 52.8 18.2 52.4 17.3C52 16.4 51.5 15.8 50.6 15.4ZM51.6 19.6C51.3 20.2 50.9 20.7 50.2 21C49.6 21.3 48.9 21.3 48.3 21C47.7 20.7 47.2 20.3 46.9 19.6C46.6 18.9 46.6 18.3 46.9 17.7C47.2 17.1 47.6 16.6 48.3 16.3C48.6 16.2 48.9 16.1 49.3 16.1C49.6 16.1 49.9 16.2 50.3 16.3C50.9 16.6 51.4 17 51.7 17.7C51.9 18.3 51.9 19 51.6 19.6Z" fill="black"/>
<path d="M50.5 29.2C50.2 29.3 50.1 29.6 50.2 29.9C50.4 30.3 50.4 30.7 50.2 31C50 31.3 49.8 31.7 49.4 31.8L6.9 49.4C6.6 49.5 6.5 49.8 6.6 50.1C6.7 50.3 6.9 50.4 7.1 50.4C7.2 50.4 7.2 50.4 7.3 50.4L49.8 32.8C51.1 32.3 51.7 30.8 51.2 29.5C51.1 29.2 50.8 29.1 50.5 29.2Z" fill="#2A76BC"/>
<path d="M16.1 44.3C16.7 44.3 17.4 44.1 17.9 43.6L31.7 29.8L33.1 29.2L43.3 25C44.2 24.6 44.8 24 45.2 23.1C45.6 22.2 45.6 21.3 45.2 20.4C45.1 20.1 44.9 19.8 44.6 19.5C44.2 19.1 43.8 18.7 43.3 18.5L28.5 12.4C27.9 12.1 27.2 12.1 26.6 12.4C26 12.7 25.5 13.1 25.2 13.8C24.7 15.1 25.3 16.5 26.6 17.1L35.4 20.8L30.4 22.9L28.6 23.7C27.3 24.2 26.7 25.7 27.2 27L27.3 27.3L14.3 40.3C13.3 41.3 13.3 42.9 14.3 43.8C14.9 44 15.5 44.3 16.1 44.3ZM36.7 21.2L38.6 22C38.7 22 38.7 22 38.8 22C39 22 39.2 21.9 39.3 21.7C39.3 21.6 39.3 21.5 39.3 21.4C39.3 21.2 39.2 21.1 39 21L38 20.6L36.7 20.1L27 16.1C26.6 15.9 26.3 15.7 26.2 15.3C26.1 14.9 26 14.5 26.2 14.2C26.4 13.9 26.6 13.5 27 13.4C27.4 13.2 27.8 13.2 28.1 13.4L40.6 18.6L42.9 19.5C43.5 19.7 43.9 20.2 44.2 20.7C44.2 20.7 44.2 20.8 44.3 20.8C44.6 21.4 44.6 22.1 44.3 22.7C44 23.3 43.6 23.8 42.9 24.1L33.2 28.1L31.4 23.8L31.3 23.5L36.7 21.2ZM15.1 40.7L28.3 27.5C28.4 27.4 28.5 27.1 28.4 27L28.1 26.4C27.8 25.6 28.1 24.8 28.9 24.4L30.3 23.8L32.2 28.4L31.2 28.8C31.1 28.8 31.1 28.9 31 28.9L17.2 42.8C16.6 43.4 15.7 43.4 15.1 42.8C14.5 42.3 14.5 41.3 15.1 40.7Z" fill="black"/>
</svg>
