<svg width="63" height="63" viewBox="0 0 63 63" fill="none" xmlns="http://www.w3.org/2000/svg">
<path d="M40.7 22.9C41.6 22.9 42.5 22.6 43.2 21.9C44.6 20.5 44.6 18.3 43.2 17C41.8 15.6 39.6 15.6 38.3 17C36.9 18.4 36.9 20.6 38.3 21.9C38.9 22.6 39.8 22.9 40.7 22.9ZM39 17.6C39.5 17.1 40.1 16.9 40.8 16.9C41.5 16.9 42.1 17.1 42.6 17.6C43.6 18.6 43.6 20.2 42.6 21.1C41.6 22.1 40 22.1 39.1 21.1C38.2 20.1 38 18.6 39 17.6Z" fill="black"/>
<path d="M34.7 47H26.7C26.4 47 26.2 47.2 26.2 47.5C26.2 47.8 26.4 48 26.7 48H34.7C35 48 35.2 47.8 35.2 47.5C35.2 47.2 35 47 34.7 47Z" fill="#2A76BC"/>
<path d="M20.6 47H12.6C12.3 47 12.1 47.2 12.1 47.5C12.1 47.8 12.3 48 12.6 48H20.6C20.9 48 21.1 47.8 21.1 47.5C21.1 47.2 20.9 47 20.6 47Z" fill="#2A76BC"/>
<path d="M45.4 22.7L41.5 26.6L37.6 22.7L37.5 22.6L26.3 11.4C25.4 10.5 23.7 10.5 22.8 11.4C22.3 11.9 22.1 12.5 22.1 13.2C22.1 13.9 22.4 14.5 22.8 15L29.5 21.7H24.1C23.2 21.7 22.3 22.1 21.7 22.7C21.7 22.7 21.7 22.7 21.6 22.7L20.2 24C19.2 25 19.2 26.5 20.2 27.5V35.4L13.9 41.7C13 42.6 12.9 44 13.6 45C14 45.6 14.7 46 15.4 46C15.5 46 15.5 46 15.6 46C16.3 46 16.9 45.7 17.4 45.3L24.5 38.2C25 37.7 25.2 37.1 25.2 36.4V32.4L27.3 34.5V43.4C27.3 44.7 28.2 45.8 29.4 46C29.5 46 29.7 46 29.8 46C30.4 46 31 45.8 31.4 45.4C32 44.9 32.3 44.2 32.3 43.5V33.5C32.3 32.8 32 32.2 31.6 31.7L28.4 28.5H35.2C35.6 28.5 36 28.4 36.4 28.3L39.9 31.8C40.4 32.3 41 32.5 41.7 32.5C42.4 32.5 43 32.2 43.5 31.8L49.2 26.1C50.2 25.1 50.2 23.5 49.2 22.6C48 21.7 46.4 21.7 45.4 22.7ZM40.5 31.2L37.2 27.9L36.8 27.5L36.4 27.1L36.2 26.9L35.7 26.4L35.5 26.2C35.5 26.2 35.4 26.2 35.4 26.1C35.2 26 35 26 34.9 26.1C34.9 26.1 34.9 26.1 34.8 26.1C34.7 26.2 34.6 26.4 34.7 26.5C34.7 26.6 34.8 26.7 34.8 26.8L35.4 27.4C35.3 27.4 35.2 27.4 35.1 27.4H27.3L22.7 23C23.1 22.7 23.6 22.6 24.1 22.6H30.5H31.2H31.9H35.1C35.8 22.6 36.4 22.9 36.8 23.3C36.8 23.3 36.9 23.4 36.9 23.5L37.7 24.3L37.9 24.5L38.2 24.8L38.4 25L41 27.6C41.2 27.8 41.5 27.8 41.7 27.6L45.9 23.4C46.5 22.8 47.5 22.8 48 23.4C48.6 24 48.6 24.9 48 25.5L42.3 31.2C42 31.7 41 31.7 40.5 31.2ZM31.2 43.5C31.2 43.9 31 44.4 30.7 44.6C30.4 44.9 29.9 45 29.5 44.9C28.8 44.8 28.2 44.1 28.2 43.3V34.2C28.2 34.1 28.1 33.9 28.1 33.8L25.2 30.9L24.7 30.4L24.2 29.9L21.2 26.9L20.9 26.6C20.8 26.5 20.7 26.4 20.7 26.2C20.5 25.8 20.4 25.3 20.6 24.9C20.7 24.8 20.8 24.6 20.9 24.5C20.9 24.5 20.9 24.5 20.9 24.4L21.1 24.2L21.9 23.4L22.2 23.7L22.7 24.2L24.5 26L25 26.5L25.7 27.2L26.2 27.7L26.7 28.2L30.6 32.1C30.9 32.4 31 32.8 31 33.2V43.5H31.2ZM24.2 36.5C24.2 36.9 24 37.3 23.8 37.6L16.7 44.7C16.4 45 15.9 45.2 15.5 45.1C15.1 45.1 14.7 44.8 14.4 44.5C14 43.9 14.1 43.1 14.6 42.5L21 36C21.1 35.9 21.1 35.8 21.1 35.6V28.5L24.1 31.5V36.5H24.2ZM25.6 12.1L35.1 21.6H30.9L23.5 14.2C23.2 13.9 23.1 13.5 23.1 13.1C23.1 12.7 23.3 12.3 23.5 12C23.8 11.7 24.2 11.6 24.6 11.6C25 11.6 25.3 11.8 25.6 12.1Z" fill="black"/>
</svg>
